<?xml version="1.0" encoding="utf-8"?>
<!-- Generator: Adobe Illustrator 19.0.0, SVG Export Plug-In . SVG Version: 6.00 Build 0)  -->
<svg version="1.1" id="Layer_1" xmlns="http://www.w3.org/2000/svg" xmlns:xlink="http://www.w3.org/1999/xlink" x="0px" y="0px"
	 viewBox="-292 401 415 199" style="enable-background:new -292 401 415 199;" xml:space="preserve">
<style type="text/css">
	.st0{enable-background:new    ;}
	.st1{fill:#F9003E;}
</style>
<g>
	<g class="st0">
		<path d="M-238.1,508.1c-1.6,2.2-4.4,4.1-8.5,5.5s-8.5,2.2-13.4,2.2c-4.7,0-9-1.2-12.7-3.5c-3.7-2.3-6.6-5.6-8.7-9.8
			c-2.1-4.2-3.2-9-3.2-14.3v-11c0-5.2,1-9.9,3-14.1s4.9-7.4,8.5-9.6c3.7-2.3,7.8-3.4,12.3-3.4c6.4,0,11.5,1.6,15.5,4.9
			s6.3,7.7,7,13.3h-2.4c-0.8-5.1-2.9-9-6.4-11.7c-3.5-2.7-8-4.1-13.8-4.1c-6.4,0-11.6,2.3-15.6,6.9s-5.9,10.6-5.9,18.1v10.2
			c0,5,0.9,9.5,2.8,13.4c1.9,3.9,4.5,7,7.9,9.1c3.4,2.2,7.3,3.2,11.6,3.2c4.3,0,8.2-0.6,11.9-1.9c3.7-1.3,6.2-2.8,7.6-4.6v-18.7
			h-19.6V486h21.9V508.1z"/>
		<path d="M-187.7,495.9h-31.3l-7.1,19.1h-2.6l24-64h2.9l24,64h-2.6L-187.7,495.9z M-218.2,493.5h29.6l-14.8-39.6L-218.2,493.5z"/>
		<path d="M-165.3,512.6h32.8v2.4h-35.2v-64h2.4V512.6z"/>
		<path d="M-86.7,495.9H-118l-7.1,19.1h-2.6l24-64h2.9l24,64h-2.6L-86.7,495.9z M-117.1,493.5h29.6l-14.8-39.6L-117.1,493.5z"/>
		<path d="M-42.3,487.6h-22.2V515h-2.4v-64h20.4c6.4,0,11.5,1.7,15.3,5c3.8,3.3,5.7,7.8,5.7,13.5c0,4.4-1.4,8.2-4.1,11.4
			c-2.7,3.3-6.2,5.3-10.3,6.1l17.1,27.4v0.6h-2.5L-42.3,487.6z M-64.5,485.2h20.2c4.9,0,8.9-1.5,11.9-4.5c3-3,4.5-6.8,4.5-11.3
			c0-5-1.7-8.9-5-11.8c-3.4-2.9-7.9-4.3-13.8-4.3h-17.8V485.2z"/>
		<path d="M8.1,488.5L30.5,451h2.9L9.3,490.7V515H6.9v-24.3L-17.2,451h3.2L8.1,488.5z"/>
	</g>
	<g class="st0">
		<path class="st1" d="M112.6,440L59.4,558h-4.6l52.6-116.4H35.4v-4.5h77.2V440z"/>
	</g>
	<g class="st0">
		<path class="st1" d="M-251.8,550.1h-23.2v21.2h26.4v1.7h-28.1v-46.2h28.1v1.7h-26.4v19.9h23.2V550.1z"/>
		<path class="st1" d="M-226.6,548.1l14.9-21.3h2.2l-16,22.6l16.6,23.6h-2.1l-15.6-22.2l-15.6,22.2h-2.1l16.6-23.6l-16-22.6h2.2
			L-226.6,548.1z"/>
		<path class="st1" d="M-199.1,553.5V573h-1.7v-46.2h14.4c4.7,0,8.4,1.2,11,3.6c2.6,2.4,3.9,5.7,3.9,9.9c0,4.2-1.3,7.4-3.8,9.7
			s-6.2,3.4-10.9,3.5H-199.1z M-199.1,551.8h12.7c4.2,0,7.4-1,9.7-3c2.3-2,3.5-4.8,3.5-8.4c0-3.7-1.2-6.6-3.5-8.7
			c-2.3-2.1-5.6-3.1-9.7-3.1h-12.7V551.8z"/>
		<path class="st1" d="M-160,571.3h23.7v1.7h-25.5v-46.2h1.7V571.3z"/>
		<path class="st1" d="M-97.6,553.4c0,4-0.7,7.5-2.1,10.6c-1.4,3.1-3.5,5.5-6.1,7.1c-2.6,1.7-5.7,2.5-9.1,2.5
			c-5.2,0-9.4-1.9-12.6-5.6c-3.2-3.7-4.8-8.7-4.8-15v-6.7c0-4,0.7-7.5,2.1-10.6c1.4-3.1,3.5-5.5,6.1-7.2c2.7-1.7,5.7-2.5,9.1-2.5
			c3.4,0,6.5,0.8,9.2,2.5c2.7,1.7,4.7,4.1,6.1,7.2c1.4,3.1,2.2,6.6,2.2,10.6V553.4z M-99.3,546.4c0-5.6-1.4-10.1-4.3-13.4
			c-2.8-3.4-6.7-5.1-11.5-5.1c-4.8,0-8.6,1.7-11.4,5c-2.8,3.4-4.3,7.9-4.3,13.7v6.8c0,3.7,0.6,6.9,1.9,9.8c1.3,2.8,3.1,5,5.5,6.5
			c2.4,1.5,5.1,2.3,8.3,2.3c4.8,0,8.6-1.7,11.5-5c2.8-3.4,4.2-8,4.2-13.8V546.4z"/>
		<path class="st1" d="M-69.4,553.2h-16V573h-1.7v-46.2h14.7c4.6,0,8.3,1.2,11.1,3.6c2.7,2.4,4.1,5.6,4.1,9.7c0,3.2-1,5.9-2.9,8.3
			c-2,2.4-4.4,3.8-7.5,4.4l12.3,19.8v0.4h-1.8L-69.4,553.2z M-85.5,551.5h14.6c3.6,0,6.4-1.1,8.6-3.2c2.2-2.2,3.3-4.9,3.3-8.2
			c0-3.6-1.2-6.4-3.6-8.5c-2.4-2.1-5.7-3.1-10-3.1h-12.9V551.5z"/>
		<path class="st1" d="M-19.6,550.1h-23.2v21.2h26.4v1.7h-28.1v-46.2h28.1v1.7h-26.4v19.9h23.2V550.1z"/>
		<path class="st1" d="M10.1,553.2h-16V573h-1.7v-46.2H7.1c4.6,0,8.3,1.2,11.1,3.6c2.7,2.4,4.1,5.6,4.1,9.7c0,3.2-1,5.9-2.9,8.3
			c-2,2.4-4.4,3.8-7.5,4.4l12.3,19.8v0.4h-1.8L10.1,553.2z M-5.9,551.5H8.6c3.6,0,6.4-1.1,8.6-3.2s3.3-4.9,3.3-8.2
			c0-3.6-1.2-6.4-3.6-8.5c-2.4-2.1-5.7-3.1-9.9-3.1H-5.9V551.5z"/>
	</g>
</g>
</svg>
